<svg xmlns="http://www.w3.org/2000/svg" width="71.44" height="48.069" viewBox="0 0 71.44 48.069"><path d="M71.342,33.158a29.029,29.029,0,0,1-7.733,19.888c-1.89,2.169-3.4,3.2-4.429,3.2a1.435,1.435,0,0,1-1.03-.371,1.54,1.54,0,0,1-.447-1.042c0-.56.67-1.415,2.007-2.646a25.578,25.578,0,0,0,8.117-19.217c0-8.471-2.808-15.337-8.383-20.646-1.113-1.019-1.7-1.867-1.7-2.536a1.421,1.421,0,0,1,.487-1.027,1.626,1.626,0,0,1,1.03-.443c1.244,0,3.123,1.515,5.484,4.545A32,32,0,0,1,71.44,33.241ZM0,31.267A29.023,29.023,0,0,1,7.734,11.38c1.889-2.169,3.4-3.2,4.435-3.2a1.427,1.427,0,0,1,1.023.371,1.327,1.327,0,0,1,.447.934c0,.56-.67,1.42-2.006,2.733a25.938,25.938,0,0,0-8.07,19.235c0,8.474,2.83,15.354,8.4,20.643,1.132,1.024,1.693,1.885,1.693,2.542a1.448,1.448,0,0,1-.476,1.036,1.58,1.58,0,0,1-1.047.477c-1.3,0-3.075-1.519-5.442-4.519C2.185,46.067,0,39.277,0,31.267ZM52.684,51.714h-32.7A2,2,0,0,1,18,49.732a1.938,1.938,0,0,1,1.989-1.989h32.7a2,2,0,0,1,1.989,1.989A1.943,1.943,0,0,1,52.684,51.714ZM34.824,25.165c.586-.074,1.024,1.83,1.074,2.23a5.114,5.114,0,0,1-.687,2.985c-1.777,3.468-5.888,6.264-4.8,10.642.494,1.89,1.472,3.2,4.508,4.819-1.027.354-2.453-.33-3.258-.9a12.369,12.369,0,0,1-5.619-10.773,21.284,21.284,0,0,1,.712-4.072c1.116-3.812,3.391-7.147,4.726-10.856a9.675,9.675,0,0,0,.629-5.812A7.035,7.035,0,0,0,30.725,10.9c-.181-.226-1.2-1.385-1.6-1.25,1.786-.67,3.391-.047,4.948.89a8.468,8.468,0,0,1,2.855,2.9,16.455,16.455,0,0,1,2.14,7.088c.091,1.026-.046,3.523,1.16,4.018,1.247.533,2.229-1.563,2.5-2.41.58-1.92-.179-3.748-.934-5.531.181.36.849.759,1.157,1.03l1.072,1.023a11.413,11.413,0,0,1,2.632,4.775,20.545,20.545,0,0,1,.8,4.861,21.526,21.526,0,0,1-1.872,9.856,13.791,13.791,0,0,1-2.319,3.789c-.95,1.11-2.226,1.825-3.253,2.849a12.267,12.267,0,0,0,3.343-9.32,8.439,8.439,0,0,0-1.962-4.679s.133,1.066.259,1.735c.223,1.475-.759,3.036-1.917,2.855-.849-.086-.4-1.913-.313-2.495a9.186,9.186,0,0,0-.726-5.039c-.622-1.515-1.786-2.72-3.566-2.449Z" fill="#ffffff"/></svg>
