<svg xmlns="http://www.w3.org/2000/svg" width="50" height="50" viewBox="0 0 50 50"><path d="M25,0C11.187,0,0,11.478,0,25.635A25.581,25.581,0,0,0,17.094,49.956c1.25.241,1.708-.552,1.708-1.233,0-.609-.021-2.222-.031-4.358-6.954,1.547-8.421-3.439-8.421-3.439-1.138-2.959-2.781-3.749-2.781-3.749-2.265-1.59.175-1.558.175-1.558a5.26,5.26,0,0,1,3.829,2.641c2.229,3.92,5.852,2.788,7.281,2.132a5.517,5.517,0,0,1,1.584-3.429C14.885,36.322,9.05,34.118,9.05,24.3a10.029,10.029,0,0,1,2.573-6.878,9.331,9.331,0,0,1,.219-6.785s2.093-.688,6.875,2.627a23.012,23.012,0,0,1,12.5,0c4.75-3.315,6.843-2.627,6.843-2.627a9.588,9.588,0,0,1,.25,6.785A10.069,10.069,0,0,1,40.873,24.3c0,9.848-5.844,12.016-11.406,12.647a6.22,6.22,0,0,1,1.687,4.742c0,3.431-.031,6.187-.031,7.02,0,.673.437,1.474,1.719,1.217A25.492,25.492,0,0,0,50,25.635C50,11.478,38.806,0,25,0" fill="#ffffff"/></svg>
