<svg xmlns="http://www.w3.org/2000/svg" width="50" height="50" viewBox="0 0 50 50"><path fill="#fff" d="M1.492,25.408l-.167-.084A2.2,2.2,0,0,1,.448,24.4,3.254,3.254,0,0,1,.03,22.821l.042-.273a2.438,2.438,0,0,1,.292-1.157l.167-.315a3.514,3.514,0,0,1,.314-.463.559.559,0,0,0,.1-.505l-.1-.337A4.4,4.4,0,0,1,.636,18.51l-.063-.253A1.919,1.919,0,0,1,.991,17l.209-.273a1.191,1.191,0,0,1,.626-.421.577.577,0,0,0,.376-.526l.042-.715a2.007,2.007,0,0,1,.689-1.472l.5-.379a1.387,1.387,0,0,0,.293-.378.539.539,0,0,0,.1-.421c-.041-.21,0-.273.105-.294.334.126.543.084.689-.085l.271-.357.752-.841a.847.847,0,0,0,.167-.884L5.565,9.4a.252.252,0,0,1,.1-.315.562.562,0,0,1,.543.273l.084.148a.5.5,0,0,0,.626.273,3.317,3.317,0,0,1,1.191-.21h.668a.922.922,0,0,0,.919-.8A2.5,2.5,0,0,1,10.285,7.4a3.518,3.518,0,0,1,1.086-.841A1.791,1.791,0,0,0,12.352,5.3a2.279,2.279,0,0,1,.982-1.472l1.587-.9.46-.273a3.005,3.005,0,0,0,.731-.631l.418-.5a1.444,1.444,0,0,1,.668-.421,2.18,2.18,0,0,1,.752-.084l.835.063a2.583,2.583,0,0,1,1.086.253l.209.105a.427.427,0,0,0,.522-.105l.188-.105.9-.947a.819.819,0,0,1,.731-.252,2.74,2.74,0,0,1,.794.273A2.02,2.02,0,0,0,24.257.59h.209a6.182,6.182,0,0,1,1.378.168l.314.084a.809.809,0,0,0,.835-.294.187.187,0,0,1,.292-.042.243.243,0,0,1,.1.147.944.944,0,0,0,.626.841l.335.105a1.675,1.675,0,0,1,.877.631,3.228,3.228,0,0,0,.752.842l.208.21a1,1,0,0,0,.794.273h1.232a3.55,3.55,0,0,1,1.462.295,1.762,1.762,0,0,0,1.379.084,3.258,3.258,0,0,1,1.42-.147l.9.147a1.623,1.623,0,0,1,1.086.568l.1.105a6.309,6.309,0,0,1,.627.778.768.768,0,0,0,.71.421h1.295a1.751,1.751,0,0,1,.877.21,7.184,7.184,0,0,1,.71.631l.209.273a1.591,1.591,0,0,1,.355,1.115.609.609,0,0,0,.585.631l.418.042a.826.826,0,0,1,.689.484l.209.421.543,1.22a1.223,1.223,0,0,1,.083.588.5.5,0,0,0,.209.463l.209.147a.955.955,0,0,1,.376.884l-.146.988-.042.421a.693.693,0,0,0,.251.631,1.007,1.007,0,0,1,.48.8v.421a.89.89,0,0,1-.209.631,1.038,1.038,0,0,0-.209.631l.063.484a1.254,1.254,0,0,0,.418.841,1.281,1.281,0,0,1,.5.883,8.367,8.367,0,0,1,.1,1.367V21.5a1.392,1.392,0,0,0,.063.5.718.718,0,0,0,.271.379l.418.315a2.108,2.108,0,0,1,.877,1.115,3.411,3.411,0,0,1,.272,1.43v.168a3.492,3.492,0,0,1-.167,1.136,1.5,1.5,0,0,0,.062,1.052,2.617,2.617,0,0,1,.314.988,2.02,2.02,0,0,1-.1,1.178l-.042.147a1.88,1.88,0,0,1-.48.673c-.209.211-.418.337-.543.484a.539.539,0,0,0-.146.526l.063.294a2.423,2.423,0,0,1,0,1.22v.168a4.4,4.4,0,0,1-.335.842,1.517,1.517,0,0,1-.626.631l-.313.21a.549.549,0,0,0-.251.463.807.807,0,0,1-.209.547l-.313.42a2.016,2.016,0,0,1-.773.631,4.621,4.621,0,0,0-.731.631,2.369,2.369,0,0,0-.459.842.707.707,0,0,1-.69.588H42.908a.818.818,0,0,0-.69.463,2.725,2.725,0,0,1-.48.778,1.693,1.693,0,0,0-.418.758c-.042.252-.25.42-.459.336a.518.518,0,0,0-.669.21,5.056,5.056,0,0,1-.772,1.01l-.146.126a1.661,1.661,0,0,1-.94.379.562.562,0,0,0-.627.42,3.922,3.922,0,0,0-.125.716,3.372,3.372,0,0,1-.209.694l-.1.126c-.209.315-.376.631-.585.9l-.084.126a1.927,1.927,0,0,1-1.044.737,4.156,4.156,0,0,1-1.378.21h-.293a.713.713,0,0,0-.564.336l-.125.211-.125.252-.272.463a1.545,1.545,0,0,1-.94.757,4.735,4.735,0,0,1-1.336.126l-.335-.042a1.968,1.968,0,0,1-.835-.21.535.535,0,0,0-.627.21,1.375,1.375,0,0,1-.731.547l-.626.21a2.762,2.762,0,0,1-1.316,0l-.334-.1a1.161,1.161,0,0,1-.585-.21,1.123,1.123,0,0,0-.626-.126l-.272.042a3.085,3.085,0,0,1-1.169-.1L22.5,49.3a1.19,1.19,0,0,1-.627-.483.817.817,0,0,0-.626-.421h-.669a1.571,1.571,0,0,1-1.044-.526l-.835-.8-.293-.252-.459-.337-.272-.21a2.441,2.441,0,0,0-1.086-.421l-1.253-.21a1.87,1.87,0,0,1-.334-.063l-.48-.106a.986.986,0,0,1-.564-.42.453.453,0,0,0-.564-.211,5.074,5.074,0,0,1-1.086.274h-.293a3.013,3.013,0,0,1-1.545-.274,2.777,2.777,0,0,1-1.149-.925A1.7,1.7,0,0,0,8.238,43.2l-.585-.126a3.39,3.39,0,0,1-1.211-.505,2.263,2.263,0,0,1-.794-.9,2.555,2.555,0,0,1-.292-1.052v-.168a1.039,1.039,0,0,0-.731-.9,3.024,3.024,0,0,1-1.149-.631,1.5,1.5,0,0,1-.459-1.093l.042-.926a1.18,1.18,0,0,0-.355-.9,1.308,1.308,0,0,1-.418-.9l-.063-.757a11.24,11.24,0,0,0-.271-1.64,1.057,1.057,0,0,1,.459-1.2l.146-.1a.524.524,0,0,0,.167-.674l-.167-.21a1.579,1.579,0,0,0-.626-.421.305.305,0,0,1-.209-.315l.209-.252a.414.414,0,0,0,0-.505.962.962,0,0,1-.272-.589l-.042-1.472a3.211,3.211,0,0,1,.126-.884.549.549,0,0,0-.251-.673Zm20.677-2.776a.39.39,0,0,0,0-.526,2.026,2.026,0,0,1-.481-.568l-.209-.336a3.039,3.039,0,0,0-.543-.715l-.041-.042a1.813,1.813,0,0,1-.481-.631.677.677,0,0,1,0-.631l.125-.211a1.575,1.575,0,0,0,.209-.757v-.084a1.251,1.251,0,0,0-.209-.631,2.435,2.435,0,0,1-.208-.589v-.126a.856.856,0,0,1,.167-.736,2.5,2.5,0,0,0,.355-.842v-.042a.824.824,0,0,0-.084-.694.76.76,0,0,1-.083-.673l.146-.42a2.973,2.973,0,0,1,.564-1.01l.292-.316L21.9,11.8l.125-.126a.41.41,0,0,0,.042-.505.989.989,0,0,1-.125-.631l.042-.294a2.423,2.423,0,0,1,.48-1.178l.083-.084a2.318,2.318,0,0,1,1.17-.842l.564-.21A.667.667,0,0,0,24.7,7.3a1.554,1.554,0,0,1,.292-.9l.1-.105A11.434,11.434,0,0,0,25.719,5.2l.146-.274a.405.405,0,0,0,.063-.21.638.638,0,0,0-.543-.694l-.919-.063c-.522-.042-1.044,0-1.546,0l-1.775.21a.51.51,0,0,0-.5.505.683.683,0,0,1-.46.631l-.751.21-.209.063-.627.211a1.721,1.721,0,0,0-1.044.946l-.167.274a2.574,2.574,0,0,1-1,1.114,1.548,1.548,0,0,0-.668,1.22V9.55a2.078,2.078,0,0,1-.418,1.135l-.1.169a.692.692,0,0,0-.1.715,1.746,1.746,0,0,1,.147.8v1.115a.71.71,0,0,1-.418.631.9.9,0,0,0-.564.631l-.1.42a1.06,1.06,0,0,0,.417,1.094,1.705,1.705,0,0,1,.627,1.094v.378a1.443,1.443,0,0,0,.668,1.052,2.29,2.29,0,0,1,.836,1.052l.1.336a1.14,1.14,0,0,0,.961.778h.125a1.089,1.089,0,0,1,.919.547,1.353,1.353,0,0,0,.919.631l.585.168a2.259,2.259,0,0,1,.96.568l.042.042a.525.525,0,0,0,.731-.084l.146-.168Zm2.38-1.935a.328.328,0,0,0,.5-.126l.062-.1a4.483,4.483,0,0,1,.543-.842l.418-.631c.063,0,.084-.042.1-.084l.5-.673a1.065,1.065,0,0,1,.752-.357.673.673,0,0,0,.626-.421,1.636,1.636,0,0,1,.46-.8l.1-.127a2.185,2.185,0,0,1,.627-.42,5.1,5.1,0,0,1,.772-.084h.627a.649.649,0,0,0,.585-.316,1.24,1.24,0,0,1,.522-.463l.209-.084a3.777,3.777,0,0,1,1.086-.294l.417-.042a1.454,1.454,0,0,1,.773.147.564.564,0,0,0,.689-.042l.147-.084a2.377,2.377,0,0,1,1.044-.421h.042a4.692,4.692,0,0,1,1.211-.063h.209a1.614,1.614,0,0,1,1.044.526l.063.084a1.285,1.285,0,0,0,.835.379h.355a.3.3,0,0,0,.272-.148.412.412,0,0,1,.271-.126h.209a2.812,2.812,0,0,1,.835.168l.355.148a5.854,5.854,0,0,0,1.045.252h.25a.248.248,0,0,0,.272-.252,1.123,1.123,0,0,0-.146-.589l-.147-.337a7.811,7.811,0,0,1-.417-.841l-.042-.105a.677.677,0,0,1,0-.631v-.105a.358.358,0,0,0-.209-.421H42.26a1.658,1.658,0,0,1-.835-.568l-.209-.21a1.885,1.885,0,0,1-.418-.842.692.692,0,0,0-.626-.483h-.878a1.151,1.151,0,0,1-.772-.463L38.438,9.7a2.893,2.893,0,0,1-.355-.715.477.477,0,0,0-.543-.274l-.251.084a2.863,2.863,0,0,1-1.253.169L35.7,8.919a1.6,1.6,0,0,1-.961-.358l-.208-.147a2.6,2.6,0,0,0-.523-.295.4.4,0,0,0-.5.106l-.1.126a1.467,1.467,0,0,1-.794.42l-1.128.063a.828.828,0,0,0-.564.253,1.221,1.221,0,0,1-.563.294h-.042a1.223,1.223,0,0,0-.627.3v.042a1.057,1.057,0,0,1-.752.315l-.083.042a3.035,3.035,0,0,0-.752.063h-.251a.921.921,0,0,0-.71.737l-.083.483a2.114,2.114,0,0,1-.418.9,1,1,0,0,1-.773.42H25.51a.489.489,0,0,0-.376.526,3.093,3.093,0,0,1-.062.989l-.084.357a.971.971,0,0,1-.564.673l-.125.064h-.042a.306.306,0,0,0-.1.42,1.008,1.008,0,0,1,.146.631l-.063.673a1.571,1.571,0,0,1-.209.694.678.678,0,0,0-.041.631l.208.463a.921.921,0,0,1,.063.673,1.657,1.657,0,0,0-.084.631.586.586,0,0,0,.293.505l.042.042ZM41.049,35.9a.608.608,0,0,0,.772.126l.418-.274a1.188,1.188,0,0,0,.46-.631v-.042l.209-.631.125-.21.083-.21.084-.148a.653.653,0,0,1,.418-.357l.083-.042a.386.386,0,0,0,.272-.379.908.908,0,0,1,.209-.526l.167-.147.417-.547v-.042a1.382,1.382,0,0,0,.251-.568,1.106,1.106,0,0,0-.084-.631l-.041-.084a1.928,1.928,0,0,1-.147-.547l-.062-.589-.063-.63a1.258,1.258,0,0,1,.209-.631,2.051,2.051,0,0,0,.334-.589V27.49l.042-.042c.042-.21-.063-.42-.251-.42a.856.856,0,0,1-.48-.526l-.063-.126a4.29,4.29,0,0,1-.167-1.136l.042-1.052v-.063a.631.631,0,0,0-.627-.631h-.041a1.384,1.384,0,0,1-1.045-.42l-.167-.211-.417-.483-.543-.631a4.965,4.965,0,0,0-.69-.8,1.575,1.575,0,0,0-.835-.462l-.418-.064a2.222,2.222,0,0,1-.71-.294.454.454,0,0,0-.585.084l-.271.3-.125.084a.3.3,0,0,1-.356-.211,1.066,1.066,0,0,1,.042-.8v-.126a.2.2,0,0,0-.25-.21h-.335a2.521,2.521,0,0,1-1.106-.211l-.209-.084a1.591,1.591,0,0,0-.69-.168,1.174,1.174,0,0,0-.626.168l-.084.063a1.7,1.7,0,0,1-.835.274h-.689a1.375,1.375,0,0,0-.836.273,2.623,2.623,0,0,1-.877.337l-.564.084a1.908,1.908,0,0,0-.752.357,1.846,1.846,0,0,1-.772.421l-.1.042a1.548,1.548,0,0,0-.835.631l-.251.252a.572.572,0,0,0,0,.673.543.543,0,0,0,.627.211l.313-.126a.607.607,0,0,1,.5.084.684.684,0,0,0,.5.147l.522-.063a3.113,3.113,0,0,1,.877.084,2.393,2.393,0,0,1,.835.421,1.542,1.542,0,0,0,.836.336,4.445,4.445,0,0,1,.919.211l.208.042a.89.89,0,0,1,.5.42,1.34,1.34,0,0,1,.209.631v.063a.419.419,0,0,0,.417.421h.126a3.683,3.683,0,0,1,1.044.147l.146.063a1.216,1.216,0,0,1,.564.421,1.861,1.861,0,0,1,.334.631l.063.294a4.961,4.961,0,0,1,.083.968v.1a.557.557,0,0,0,.376.505,2.5,2.5,0,0,1,.689.252l.1.042a3.125,3.125,0,0,1,.752.631l.1.148a1.714,1.714,0,0,1,.418,1.114v.147a2.8,2.8,0,0,1-.167.926.474.474,0,0,0,.271.631l.146.1A1.934,1.934,0,0,1,40.8,33a1.862,1.862,0,0,1,.293,1.052v.631a1.328,1.328,0,0,1-.209.525.444.444,0,0,0,0,.505l.125.211ZM27.682,25.135H27.64c-.083,0-.125.1-.1.21l.084.421a8.627,8.627,0,0,1,.167,1.009,1.3,1.3,0,0,0,.459.842h.084a1.415,1.415,0,0,1,.522,1.009v1.052a.735.735,0,0,0,.125.589l.105.1a1.448,1.448,0,0,1,.313.841l.062,1.157a.528.528,0,0,1-.417.547l-.209.042c-.146,0-.209.168-.209.315a1.62,1.62,0,0,0,.125.526v.042a1.621,1.621,0,0,1,.063.631l-.084.568a3.945,3.945,0,0,1-.417,1.178l-.146.252a.9.9,0,0,1-.418.421.707.707,0,0,0-.418.463l-.167.757a4.68,4.68,0,0,1-.543,1.262h-.042a3.014,3.014,0,0,1-.94.841l-.25.169-.627.315a.636.636,0,0,0-.376.5l-.1.694a1.726,1.726,0,0,1-.5,1.052l-.272.315-.313.315-.313.337a1.111,1.111,0,0,1-1.045.358l-.752-.148-.689-.084H20.2a.284.284,0,0,0-.041.337.756.756,0,0,0,.626.42l.46.085a1.653,1.653,0,0,1,.668.21,1.963,1.963,0,0,0,.668.315h.042a1.9,1.9,0,0,0,.835.106l.314-.043a1.888,1.888,0,0,1,.981.127l.251.084a.384.384,0,0,0,.376-.1,1.094,1.094,0,0,1,.418-.274l.167-.042a2.774,2.774,0,0,1,.835-.126h.167a1.291,1.291,0,0,1,.689.168l.084.042a.366.366,0,0,0,.418-.126,1.309,1.309,0,0,1,.355-.421l.522-.357.334-.21.167-.106a1.358,1.358,0,0,1,.752-.21l.752-.063a.764.764,0,0,0,.626-.547,2.547,2.547,0,0,1,.418-.9,7.142,7.142,0,0,1,.627-.715,1.5,1.5,0,0,1,.835-.337h.167a.7.7,0,0,0,.564-.715V39.227a2.3,2.3,0,0,1,.251-.694l.417-.631.167-.211a3.948,3.948,0,0,0,.355-.42L35.681,37a.57.57,0,0,0-.042-.673,1.406,1.406,0,0,1-.355-.8v-.084a2.606,2.606,0,0,1,.063-1.052v-.1a4.2,4.2,0,0,1,.418-.8.473.473,0,0,0-.063-.673l-.355-.316a1.564,1.564,0,0,1-.5-1.009l-.042-.421a1.511,1.511,0,0,0-.042-.421l-.041-.315a1.205,1.205,0,0,0-.543-.841l-.147-.042a1.878,1.878,0,0,1-.584-.568,1.939,1.939,0,0,1-.314-.8l-.062-.357a.314.314,0,0,0-.209-.274l-.334-.1-.669-.21a1.235,1.235,0,0,1-.564-.358h-.041a.3.3,0,0,0-.46-.042l-.209.211c-.042.063-.083.084-.146.063a.159.159,0,0,1-.167-.211.958.958,0,0,0-.355-.883l-.272-.21-.626-.421a.4.4,0,0,0-.5.21l-.084.127c0,.042-.063.063-.083.084-.084,0-.209,0-.209-.1l-.063-.106a.579.579,0,0,0-.334-.252Zm-2.506,2.1-.1-.105c-.105-.084-.209-.063-.314.042a2.968,2.968,0,0,0-.334.8v.042a.52.52,0,0,1-.564.421h-.25a.537.537,0,0,0-.523.547,1.722,1.722,0,0,1-.355,1.051l-.125.127a1.766,1.766,0,0,1-.835.568l-.167.042a.563.563,0,0,0-.418.462.884.884,0,0,1-.292.589l-.209.168a1.6,1.6,0,0,1-1,.463l-1.044.1a1.034,1.034,0,0,0-.835.526,1.245,1.245,0,0,1-.836.568l-.459.042a2.937,2.937,0,0,1-1.045-.042l-.208-.042-.564-.147a.447.447,0,0,0-.5.147l-.208.273a1.21,1.21,0,0,1-1.045.421l-1.357-.168a1.153,1.153,0,0,1-.564-.211,2.525,2.525,0,0,1-.5-.42l-.523-.631a.375.375,0,0,0-.271-.042l-.292.126-1.17.294a.909.909,0,0,1-.689-.126,1.09,1.09,0,0,0-.71-.21H6.588a.47.47,0,0,0-.334.589l.084.42a.955.955,0,0,1-.063.674.581.581,0,0,0,.063.631l.125.168a4.87,4.87,0,0,0,.626.673,3.756,3.756,0,0,1,.585.694l.313.568a.834.834,0,0,0,.752.463,1.366,1.366,0,0,1,.878.315l.626.589a.472.472,0,0,0,.585.042l.1-.042a.2.2,0,0,1,.209.21v.1a.718.718,0,0,0,.48.631l.94.211a3.647,3.647,0,0,1,.982.42h.167A.3.3,0,0,0,14,39.942v-.736a.552.552,0,0,1,.251-.505l.1-.042c.1.042.209.126.168.21v.358a.986.986,0,0,0,.271.715.663.663,0,0,0,.71.168,1.613,1.613,0,0,1,.773-.1l.773.042A1.927,1.927,0,0,0,18.1,39.9a3.164,3.164,0,0,0,.982-.526l.125-.084.626-.568a1.049,1.049,0,0,1,.731-.316H21.4a.978.978,0,0,0,.835-.841l.084-.421a1.118,1.118,0,0,1,.313-.736,1.825,1.825,0,0,1,.627-.42l.25-.1a1.366,1.366,0,0,0,.752-.842l.125-.505a2.2,2.2,0,0,1,.627-1.114l.042-.042a.765.765,0,0,0,.125-.926l-.063-.147a.886.886,0,0,1-.062-.8,3.492,3.492,0,0,1,.376-.8l.208-.294a.554.554,0,0,0-.041-.568,1,1,0,0,1-.209-.589l-.042-.294v-.715a1.566,1.566,0,0,0-.063-.694L25.2,27.3Zm-2.987-1.6v-.063a.3.3,0,0,0-.292-.337h-.543a1.37,1.37,0,0,1-.585,0h-.94a5.253,5.253,0,0,1-1.4-.21l-.5-.127-.418-.126-.94-.315a1.777,1.777,0,0,1-1.107-.947l-.1-.21a.7.7,0,0,0-.773-.421,2.234,2.234,0,0,1-1.044-.168l-.251-.1a1.3,1.3,0,0,1-.835-1.2l-.084-.568a.936.936,0,0,0-.5-.673,4.723,4.723,0,0,1-.835-.484l-.1-.063a2.313,2.313,0,0,1-.731-.988l-.041-.126a1.984,1.984,0,0,1-.042-1.052l.042-.126a2.84,2.84,0,0,0,.1-.842.994.994,0,0,0-.292-.694l-.293-.273a1.532,1.532,0,0,1-.564-1.115,4.8,4.8,0,0,1,.042-1.346v-.126a.42.42,0,0,0-.418-.421H8.677a.706.706,0,0,0-.627.421,2.52,2.52,0,0,1-.459.757l-.084.105-.418.421-.208.21a1.478,1.478,0,0,0-.376.841,3.6,3.6,0,0,1-.251.926l-.042.105a1.451,1.451,0,0,1-.48.631.9.9,0,0,0-.355.673l-.042.968a3.817,3.817,0,0,1-.209,1.262L5.084,20a.545.545,0,0,0,.251.694l.877.379.084.042c.062,0,.083.042.1.1.063.084,0,.21-.062.21l-.209.1a.436.436,0,0,0-.251.316l-.042.21v.042l-.209,1.178a2.369,2.369,0,0,0-.041.547.415.415,0,0,0,.25.378l.46.211a4.644,4.644,0,0,1,.626.42l.209.169a.789.789,0,0,0,.251.21l.083.084a.894.894,0,0,1,.293.484l.209.946a.586.586,0,0,0,.417.526l.334.1a.164.164,0,0,1,.1.042l.418.127a2.141,2.141,0,0,1,.877.546,4.276,4.276,0,0,1,.71.779l.083.084a.651.651,0,0,0,.669.252,3.28,3.28,0,0,1,.793-.084h.314a1.376,1.376,0,0,1,.71.21,5.738,5.738,0,0,0,.731.316h.062a.755.755,0,0,0,.731-.084,1.2,1.2,0,0,1,.752-.253l.982.063a.577.577,0,0,0,.522-.21h.042l.355-.336.1-.106a.92.92,0,0,1,.669-.315h.939a.722.722,0,0,0,.585-.421.784.784,0,0,1,.564-.42l.418-.085a.441.441,0,0,0,.376-.336,1.038,1.038,0,0,1,.313-.5l.334-.336a1.186,1.186,0,0,0,.355-.673Z" transform="translate(-0.03 -0.011)"/></svg>